<?xml version="1.0" encoding="UTF-8" standalone="no"?>
<!DOCTYPE svg PUBLIC "-//W3C//DTD SVG 1.1//EN"
 "http://www.w3.org/Graphics/SVG/1.1/DTD/svg11.dtd">
<!-- Generated by graphviz version 2.40.1 (20161225.0304)
 -->
<!-- Title: dependencies Pages: 1 -->
<svg width="504pt" height="211pt"
 viewBox="0.00 0.00 504.00 211.00" xmlns="http://www.w3.org/2000/svg" xmlns:xlink="http://www.w3.org/1999/xlink">
<g id="graph0" class="graph" transform="scale(1 1) rotate(0) translate(4 207)">
<title>dependencies</title>
<polygon fill="#ffffff" stroke="transparent" points="-4,4 -4,-207 500,-207 500,4 -4,4"/>
<text text-anchor="start" x="227.0091" y="-42.4" font-family="sans-serif" font-weight="bold" font-size="14.00" fill="#000000">Legend</text>
<polygon fill="#ffffb3" stroke="transparent" points="14,-10 14,-30 34,-30 34,-10 14,-10"/>
<text text-anchor="start" x="37.629" y="-15.4" font-family="sans-serif" font-size="14.00" fill="#000000"> &#160;Declarations</text>
<polygon fill="#8dd3c7" stroke="transparent" points="127,-10 127,-30 147,-30 147,-10 127,-10"/>
<text text-anchor="start" x="150.7251" y="-15.4" font-family="sans-serif" font-size="14.00" fill="#000000"> &#160;Module</text>
<polygon fill="#80b1d3" stroke="transparent" points="213,-10 213,-30 233,-30 233,-10 213,-10"/>
<text text-anchor="start" x="236.7812" y="-15.4" font-family="sans-serif" font-size="14.00" fill="#000000"> &#160;Bootstrap</text>
<polygon fill="#fdb462" stroke="transparent" points="310,-10 310,-30 330,-30 330,-10 310,-10"/>
<text text-anchor="start" x="333.6732" y="-15.4" font-family="sans-serif" font-size="14.00" fill="#000000"> &#160;Providers</text>
<polygon fill="#fb8072" stroke="transparent" points="406,-10 406,-30 426,-30 426,-10 406,-10"/>
<text text-anchor="start" x="429.7258" y="-15.4" font-family="sans-serif" font-size="14.00" fill="#000000"> &#160;Exports</text>
<g id="clust1" class="cluster">
<title>cluster_SignonModule</title>
<polygon fill="none" stroke="#000000" stroke-dasharray="1,5" points="107,-70 107,-195 389,-195 389,-70 107,-70"/>
</g>
<g id="clust3" class="cluster">
<title>cluster_SignonModule_imports</title>
<polygon fill="none" stroke="#000000" points="273,-78 273,-130 381,-130 381,-78 273,-78"/>
</g>
<g id="clust6" class="cluster">
<title>cluster_SignonModule_providers</title>
<polygon fill="none" stroke="#000000" points="115,-78 115,-130 265,-130 265,-78 115,-78"/>
</g>
<!-- UsersModule -->
<g id="node1" class="node">
<title>UsersModule</title>
<polygon fill="#8dd3c7" stroke="#000000" points="372.9218,-122 369.9218,-126 348.9218,-126 345.9218,-122 281.0782,-122 281.0782,-86 372.9218,-86 372.9218,-122"/>
<text text-anchor="middle" x="327" y="-99.8" font-family="Times,serif" font-size="14.00" fill="#000000">UsersModule</text>
</g>
<!-- SignonModule -->
<g id="node2" class="node">
<title>SignonModule</title>
<polygon fill="#8dd3c7" stroke="#000000" points="307.7233,-187 304.7233,-191 283.7233,-191 280.7233,-187 208.2767,-187 208.2767,-151 307.7233,-151 307.7233,-187"/>
<text text-anchor="middle" x="258" y="-164.8" font-family="Times,serif" font-size="14.00" fill="#000000">SignonModule</text>
</g>
<!-- UsersModule&#45;&gt;SignonModule -->
<g id="edge1" class="edge">
<title>UsersModule&#45;&gt;SignonModule</title>
<path fill="none" stroke="#000000" d="M294.4506,-122.1061C294.4506,-122.1061 294.4506,-140.991 294.4506,-140.991"/>
<polygon fill="#000000" stroke="#000000" points="290.9506,-140.9909 294.4506,-150.991 297.9506,-140.991 290.9506,-140.9909"/>
</g>
<!-- SignonService -->
<g id="node3" class="node">
<title>SignonService</title>
<ellipse fill="#fdb462" stroke="#000000" cx="190" cy="-104" rx="67.2158" ry="18"/>
<text text-anchor="middle" x="190" y="-99.8" font-family="Times,serif" font-size="14.00" fill="#000000">SignonService</text>
</g>
<!-- SignonService&#45;&gt;SignonModule -->
<g id="edge2" class="edge">
<title>SignonService&#45;&gt;SignonModule</title>
<path fill="none" stroke="#000000" d="M232.8731,-118.104C232.8731,-118.104 232.8731,-140.7209 232.8731,-140.7209"/>
<polygon fill="#000000" stroke="#000000" points="229.3732,-140.7209 232.8731,-150.7209 236.3732,-140.7209 229.3732,-140.7209"/>
</g>
</g>
</svg>
