<?xml version="1.0" encoding="UTF-8" standalone="no"?>
<!DOCTYPE svg PUBLIC "-//W3C//DTD SVG 1.1//EN"
 "http://www.w3.org/Graphics/SVG/1.1/DTD/svg11.dtd">
<!-- Generated by graphviz version 2.40.1 (20161225.0304)
 -->
<!-- Title: dependencies Pages: 1 -->
<svg width="732pt" height="284pt"
 viewBox="0.00 0.00 732.00 284.00" xmlns="http://www.w3.org/2000/svg" xmlns:xlink="http://www.w3.org/1999/xlink">
<g id="graph0" class="graph" transform="scale(1 1) rotate(0) translate(4 280)">
<title>dependencies</title>
<polygon fill="#ffffff" stroke="transparent" points="-4,4 -4,-280 728,-280 728,4 -4,4"/>
<text text-anchor="start" x="341.0091" y="-42.4" font-family="sans-serif" font-weight="bold" font-size="14.00" fill="#000000">Legend</text>
<polygon fill="#ffffb3" stroke="transparent" points="128,-10 128,-30 148,-30 148,-10 128,-10"/>
<text text-anchor="start" x="151.629" y="-15.4" font-family="sans-serif" font-size="14.00" fill="#000000"> &#160;Declarations</text>
<polygon fill="#8dd3c7" stroke="transparent" points="241,-10 241,-30 261,-30 261,-10 241,-10"/>
<text text-anchor="start" x="264.7251" y="-15.4" font-family="sans-serif" font-size="14.00" fill="#000000"> &#160;Module</text>
<polygon fill="#80b1d3" stroke="transparent" points="327,-10 327,-30 347,-30 347,-10 327,-10"/>
<text text-anchor="start" x="350.7812" y="-15.4" font-family="sans-serif" font-size="14.00" fill="#000000"> &#160;Bootstrap</text>
<polygon fill="#fdb462" stroke="transparent" points="424,-10 424,-30 444,-30 444,-10 424,-10"/>
<text text-anchor="start" x="447.6732" y="-15.4" font-family="sans-serif" font-size="14.00" fill="#000000"> &#160;Providers</text>
<polygon fill="#fb8072" stroke="transparent" points="520,-10 520,-30 540,-30 540,-10 520,-10"/>
<text text-anchor="start" x="543.7258" y="-15.4" font-family="sans-serif" font-size="14.00" fill="#000000"> &#160;Exports</text>
<g id="clust1" class="cluster">
<title>cluster_AuthModule</title>
<polygon fill="none" stroke="#000000" stroke-dasharray="1,5" points="8,-70 8,-268 716,-268 716,-70 8,-70"/>
</g>
<g id="clust3" class="cluster">
<title>cluster_AuthModule_imports</title>
<polygon fill="none" stroke="#000000" points="307,-78 307,-130 708,-130 708,-78 307,-78"/>
</g>
<g id="clust4" class="cluster">
<title>cluster_AuthModule_exports</title>
<polygon fill="none" stroke="#000000" points="308,-208 308,-260 414,-260 414,-208 308,-208"/>
</g>
<g id="clust6" class="cluster">
<title>cluster_AuthModule_providers</title>
<polygon fill="none" stroke="#000000" points="16,-78 16,-130 299,-130 299,-78 16,-78"/>
</g>
<!-- JwtAuthModule -->
<g id="node1" class="node">
<title>JwtAuthModule</title>
<polygon fill="#8dd3c7" stroke="#000000" points="700.4888,-122 697.4888,-126 676.4888,-126 673.4888,-122 593.5112,-122 593.5112,-86 700.4888,-86 700.4888,-122"/>
<text text-anchor="middle" x="647" y="-99.8" font-family="Times,serif" font-size="14.00" fill="#000000">JwtAuthModule</text>
</g>
<!-- AuthModule -->
<g id="node4" class="node">
<title>AuthModule</title>
<polygon fill="#8dd3c7" stroke="#000000" points="404.5482,-187 401.5482,-191 380.5482,-191 377.5482,-187 317.4518,-187 317.4518,-151 404.5482,-151 404.5482,-187"/>
<text text-anchor="middle" x="361" y="-164.8" font-family="Times,serif" font-size="14.00" fill="#000000">AuthModule</text>
</g>
<!-- JwtAuthModule&#45;&gt;AuthModule -->
<g id="edge1" class="edge">
<title>JwtAuthModule&#45;&gt;AuthModule</title>
<path fill="none" stroke="#000000" d="M647,-122.2843C647,-143.3211 647,-175 647,-175 647,-175 414.7486,-175 414.7486,-175"/>
<polygon fill="#000000" stroke="#000000" points="414.7486,-171.5001 404.7486,-175 414.7485,-178.5001 414.7486,-171.5001"/>
</g>
<!-- JwtRefreshAuthModule -->
<g id="node2" class="node">
<title>JwtRefreshAuthModule</title>
<polygon fill="#8dd3c7" stroke="#000000" points="575.0212,-122 572.0212,-126 551.0212,-126 548.0212,-122 424.9788,-122 424.9788,-86 575.0212,-86 575.0212,-122"/>
<text text-anchor="middle" x="500" y="-99.8" font-family="Times,serif" font-size="14.00" fill="#000000">JwtRefreshAuthModule</text>
</g>
<!-- JwtRefreshAuthModule&#45;&gt;AuthModule -->
<g id="edge2" class="edge">
<title>JwtRefreshAuthModule&#45;&gt;AuthModule</title>
<path fill="none" stroke="#000000" d="M500,-122.0225C500,-139.3734 500,-163 500,-163 500,-163 414.5991,-163 414.5991,-163"/>
<polygon fill="#000000" stroke="#000000" points="414.5991,-159.5001 404.5991,-163 414.5991,-166.5001 414.5991,-159.5001"/>
</g>
<!-- UsersModule -->
<g id="node3" class="node">
<title>UsersModule</title>
<polygon fill="#8dd3c7" stroke="#000000" points="406.9218,-122 403.9218,-126 382.9218,-126 379.9218,-122 315.0782,-122 315.0782,-86 406.9218,-86 406.9218,-122"/>
<text text-anchor="middle" x="361" y="-99.8" font-family="Times,serif" font-size="14.00" fill="#000000">UsersModule</text>
</g>
<!-- UsersModule&#45;&gt;AuthModule -->
<g id="edge3" class="edge">
<title>UsersModule&#45;&gt;AuthModule</title>
<path fill="none" stroke="#000000" d="M361,-122.1061C361,-122.1061 361,-140.991 361,-140.991"/>
<polygon fill="#000000" stroke="#000000" points="357.5001,-140.9909 361,-150.991 364.5001,-140.991 357.5001,-140.9909"/>
</g>
<!-- AuthService  -->
<g id="node5" class="node">
<title>AuthService </title>
<polygon fill="#fb8072" stroke="#000000" points="405.9761,-252 316.0239,-252 316.0239,-216 405.9761,-216 405.9761,-252"/>
<text text-anchor="middle" x="361" y="-229.8" font-family="Times,serif" font-size="14.00" fill="#000000">AuthService </text>
</g>
<!-- AuthModule&#45;&gt;AuthService  -->
<g id="edge4" class="edge">
<title>AuthModule&#45;&gt;AuthService </title>
<path fill="none" stroke="#000000" stroke-dasharray="5,2" d="M361,-187.1061C361,-187.1061 361,-205.991 361,-205.991"/>
<polygon fill="#000000" stroke="#000000" points="357.5001,-205.9909 361,-215.991 364.5001,-205.991 357.5001,-205.9909"/>
</g>
<!-- AuthService -->
<g id="node6" class="node">
<title>AuthService</title>
<ellipse fill="#fdb462" stroke="#000000" cx="232" cy="-104" rx="59.1083" ry="18"/>
<text text-anchor="middle" x="232" y="-99.8" font-family="Times,serif" font-size="14.00" fill="#000000">AuthService</text>
</g>
<!-- AuthService&#45;&gt;AuthModule -->
<g id="edge5" class="edge">
<title>AuthService&#45;&gt;AuthModule</title>
<path fill="none" stroke="#000000" d="M232,-122.0225C232,-139.3734 232,-163 232,-163 232,-163 307.3265,-163 307.3265,-163"/>
<polygon fill="#000000" stroke="#000000" points="307.3265,-166.5001 317.3265,-163 307.3264,-159.5001 307.3265,-166.5001"/>
</g>
<!-- LocalStrategy -->
<g id="node7" class="node">
<title>LocalStrategy</title>
<ellipse fill="#fdb462" stroke="#000000" cx="89" cy="-104" rx="65.4053" ry="18"/>
<text text-anchor="middle" x="89" y="-99.8" font-family="Times,serif" font-size="14.00" fill="#000000">LocalStrategy</text>
</g>
<!-- LocalStrategy&#45;&gt;AuthModule -->
<g id="edge6" class="edge">
<title>LocalStrategy&#45;&gt;AuthModule</title>
<path fill="none" stroke="#000000" d="M89,-122.2843C89,-143.3211 89,-175 89,-175 89,-175 307.2985,-175 307.2985,-175"/>
<polygon fill="#000000" stroke="#000000" points="307.2985,-178.5001 317.2985,-175 307.2985,-171.5001 307.2985,-178.5001"/>
</g>
</g>
</svg>
