<?xml version="1.0" encoding="UTF-8" standalone="no"?>
<!DOCTYPE svg PUBLIC "-//W3C//DTD SVG 1.1//EN"
 "http://www.w3.org/Graphics/SVG/1.1/DTD/svg11.dtd">
<!-- Generated by graphviz version 2.40.1 (20161225.0304)
 -->
<!-- Title: dependencies Pages: 1 -->
<svg width="617pt" height="284pt"
 viewBox="0.00 0.00 617.00 284.00" xmlns="http://www.w3.org/2000/svg" xmlns:xlink="http://www.w3.org/1999/xlink">
<g id="graph0" class="graph" transform="scale(1 1) rotate(0) translate(4 280)">
<title>dependencies</title>
<polygon fill="#ffffff" stroke="transparent" points="-4,4 -4,-280 613,-280 613,4 -4,4"/>
<text text-anchor="start" x="283.5091" y="-42.4" font-family="sans-serif" font-weight="bold" font-size="14.00" fill="#000000">Legend</text>
<polygon fill="#ffffb3" stroke="transparent" points="70.5,-10 70.5,-30 90.5,-30 90.5,-10 70.5,-10"/>
<text text-anchor="start" x="94.129" y="-15.4" font-family="sans-serif" font-size="14.00" fill="#000000"> &#160;Declarations</text>
<polygon fill="#8dd3c7" stroke="transparent" points="183.5,-10 183.5,-30 203.5,-30 203.5,-10 183.5,-10"/>
<text text-anchor="start" x="207.2251" y="-15.4" font-family="sans-serif" font-size="14.00" fill="#000000"> &#160;Module</text>
<polygon fill="#80b1d3" stroke="transparent" points="269.5,-10 269.5,-30 289.5,-30 289.5,-10 269.5,-10"/>
<text text-anchor="start" x="293.2812" y="-15.4" font-family="sans-serif" font-size="14.00" fill="#000000"> &#160;Bootstrap</text>
<polygon fill="#fdb462" stroke="transparent" points="366.5,-10 366.5,-30 386.5,-30 386.5,-10 366.5,-10"/>
<text text-anchor="start" x="390.1732" y="-15.4" font-family="sans-serif" font-size="14.00" fill="#000000"> &#160;Providers</text>
<polygon fill="#fb8072" stroke="transparent" points="462.5,-10 462.5,-30 482.5,-30 482.5,-10 462.5,-10"/>
<text text-anchor="start" x="486.2258" y="-15.4" font-family="sans-serif" font-size="14.00" fill="#000000"> &#160;Exports</text>
<g id="clust1" class="cluster">
<title>cluster_JwtAuthModule</title>
<polygon fill="none" stroke="#000000" stroke-dasharray="1,5" points="8,-70 8,-268 601,-268 601,-70 8,-70"/>
</g>
<g id="clust3" class="cluster">
<title>cluster_JwtAuthModule_imports</title>
<polygon fill="none" stroke="#000000" points="317,-78 317,-130 593,-130 593,-78 317,-78"/>
</g>
<g id="clust4" class="cluster">
<title>cluster_JwtAuthModule_exports</title>
<polygon fill="none" stroke="#000000" points="190,-208 190,-260 418,-260 418,-208 190,-208"/>
</g>
<g id="clust6" class="cluster">
<title>cluster_JwtAuthModule_providers</title>
<polygon fill="none" stroke="#000000" points="16,-78 16,-130 309,-130 309,-78 16,-78"/>
</g>
<!-- JwtRefreshAuthModule -->
<g id="node1" class="node">
<title>JwtRefreshAuthModule</title>
<polygon fill="#8dd3c7" stroke="#000000" points="585.0212,-122 582.0212,-126 561.0212,-126 558.0212,-122 434.9788,-122 434.9788,-86 585.0212,-86 585.0212,-122"/>
<text text-anchor="middle" x="510" y="-99.8" font-family="Times,serif" font-size="14.00" fill="#000000">JwtRefreshAuthModule</text>
</g>
<!-- JwtAuthModule -->
<g id="node3" class="node">
<title>JwtAuthModule</title>
<polygon fill="#8dd3c7" stroke="#000000" points="352.4888,-187 349.4888,-191 328.4888,-191 325.4888,-187 245.5112,-187 245.5112,-151 352.4888,-151 352.4888,-187"/>
<text text-anchor="middle" x="299" y="-164.8" font-family="Times,serif" font-size="14.00" fill="#000000">JwtAuthModule</text>
</g>
<!-- JwtRefreshAuthModule&#45;&gt;JwtAuthModule -->
<g id="edge1" class="edge">
<title>JwtRefreshAuthModule&#45;&gt;JwtAuthModule</title>
<path fill="none" stroke="#000000" d="M510,-122.1061C510,-141.3391 510,-169 510,-169 510,-169 362.517,-169 362.517,-169"/>
<polygon fill="#000000" stroke="#000000" points="362.517,-165.5001 352.517,-169 362.5169,-172.5001 362.517,-165.5001"/>
</g>
<!-- UsersModule -->
<g id="node2" class="node">
<title>UsersModule</title>
<polygon fill="#8dd3c7" stroke="#000000" points="416.9218,-122 413.9218,-126 392.9218,-126 389.9218,-122 325.0782,-122 325.0782,-86 416.9218,-86 416.9218,-122"/>
<text text-anchor="middle" x="371" y="-99.8" font-family="Times,serif" font-size="14.00" fill="#000000">UsersModule</text>
</g>
<!-- UsersModule&#45;&gt;JwtAuthModule -->
<g id="edge2" class="edge">
<title>UsersModule&#45;&gt;JwtAuthModule</title>
<path fill="none" stroke="#000000" d="M338.892,-122.1061C338.892,-122.1061 338.892,-140.991 338.892,-140.991"/>
<polygon fill="#000000" stroke="#000000" points="335.3921,-140.9909 338.892,-150.991 342.3921,-140.991 335.3921,-140.9909"/>
</g>
<!-- JwtAuthService  -->
<g id="node4" class="node">
<title>JwtAuthService </title>
<polygon fill="#fb8072" stroke="#000000" points="410.4166,-252 301.5834,-252 301.5834,-216 410.4166,-216 410.4166,-252"/>
<text text-anchor="middle" x="356" y="-229.8" font-family="Times,serif" font-size="14.00" fill="#000000">JwtAuthService </text>
</g>
<!-- JwtAuthModule&#45;&gt;JwtAuthService  -->
<g id="edge3" class="edge">
<title>JwtAuthModule&#45;&gt;JwtAuthService </title>
<path fill="none" stroke="#000000" stroke-dasharray="5,2" d="M327.0181,-187.1061C327.0181,-187.1061 327.0181,-205.991 327.0181,-205.991"/>
<polygon fill="#000000" stroke="#000000" points="323.5181,-205.9909 327.0181,-215.991 330.5181,-205.991 323.5181,-205.9909"/>
</g>
<!-- JwtStrategy  -->
<g id="node5" class="node">
<title>JwtStrategy </title>
<polygon fill="#fb8072" stroke="#000000" points="283.5964,-252 198.4036,-252 198.4036,-216 283.5964,-216 283.5964,-252"/>
<text text-anchor="middle" x="241" y="-229.8" font-family="Times,serif" font-size="14.00" fill="#000000">JwtStrategy </text>
</g>
<!-- JwtAuthModule&#45;&gt;JwtStrategy  -->
<g id="edge4" class="edge">
<title>JwtAuthModule&#45;&gt;JwtStrategy </title>
<path fill="none" stroke="#000000" stroke-dasharray="5,2" d="M264.6517,-187.1061C264.6517,-187.1061 264.6517,-205.991 264.6517,-205.991"/>
<polygon fill="#000000" stroke="#000000" points="261.1517,-205.9909 264.6517,-215.991 268.1517,-205.991 261.1517,-205.9909"/>
</g>
<!-- JwtAuthService -->
<g id="node6" class="node">
<title>JwtAuthService</title>
<ellipse fill="#fdb462" stroke="#000000" cx="228" cy="-104" rx="72.9295" ry="18"/>
<text text-anchor="middle" x="228" y="-99.8" font-family="Times,serif" font-size="14.00" fill="#000000">JwtAuthService</text>
</g>
<!-- JwtAuthService&#45;&gt;JwtAuthModule -->
<g id="edge5" class="edge">
<title>JwtAuthService&#45;&gt;JwtAuthModule</title>
<path fill="none" stroke="#000000" d="M273.11,-118.4256C273.11,-118.4256 273.11,-140.8939 273.11,-140.8939"/>
<polygon fill="#000000" stroke="#000000" points="269.6101,-140.8938 273.11,-150.8939 276.6101,-140.8939 269.6101,-140.8938"/>
</g>
<!-- JwtStrategy -->
<g id="node7" class="node">
<title>JwtStrategy</title>
<ellipse fill="#fdb462" stroke="#000000" cx="81" cy="-104" rx="56.7561" ry="18"/>
<text text-anchor="middle" x="81" y="-99.8" font-family="Times,serif" font-size="14.00" fill="#000000">JwtStrategy</text>
</g>
<!-- JwtStrategy&#45;&gt;JwtAuthModule -->
<g id="edge6" class="edge">
<title>JwtStrategy&#45;&gt;JwtAuthModule</title>
<path fill="none" stroke="#000000" d="M81,-122.1061C81,-141.3391 81,-169 81,-169 81,-169 235.392,-169 235.392,-169"/>
<polygon fill="#000000" stroke="#000000" points="235.392,-172.5001 245.392,-169 235.392,-165.5001 235.392,-172.5001"/>
</g>
</g>
</svg>
