<?xml version="1.0" encoding="UTF-8" standalone="no"?>
<!DOCTYPE svg PUBLIC "-//W3C//DTD SVG 1.1//EN"
 "http://www.w3.org/Graphics/SVG/1.1/DTD/svg11.dtd">
<!-- Generated by graphviz version 2.40.1 (20161225.0304)
 -->
<!-- Title: dependencies Pages: 1 -->
<svg width="504pt" height="211pt"
 viewBox="0.00 0.00 504.00 211.00" xmlns="http://www.w3.org/2000/svg" xmlns:xlink="http://www.w3.org/1999/xlink">
<g id="graph0" class="graph" transform="scale(1 1) rotate(0) translate(4 207)">
<title>dependencies</title>
<polygon fill="#ffffff" stroke="transparent" points="-4,4 -4,-207 500,-207 500,4 -4,4"/>
<text text-anchor="start" x="227.0091" y="-42.4" font-family="sans-serif" font-weight="bold" font-size="14.00" fill="#000000">Legend</text>
<polygon fill="#ffffb3" stroke="transparent" points="14,-10 14,-30 34,-30 34,-10 14,-10"/>
<text text-anchor="start" x="37.629" y="-15.4" font-family="sans-serif" font-size="14.00" fill="#000000"> &#160;Declarations</text>
<polygon fill="#8dd3c7" stroke="transparent" points="127,-10 127,-30 147,-30 147,-10 127,-10"/>
<text text-anchor="start" x="150.7251" y="-15.4" font-family="sans-serif" font-size="14.00" fill="#000000"> &#160;Module</text>
<polygon fill="#80b1d3" stroke="transparent" points="213,-10 213,-30 233,-30 233,-10 213,-10"/>
<text text-anchor="start" x="236.7812" y="-15.4" font-family="sans-serif" font-size="14.00" fill="#000000"> &#160;Bootstrap</text>
<polygon fill="#fdb462" stroke="transparent" points="310,-10 310,-30 330,-30 330,-10 310,-10"/>
<text text-anchor="start" x="333.6732" y="-15.4" font-family="sans-serif" font-size="14.00" fill="#000000"> &#160;Providers</text>
<polygon fill="#fb8072" stroke="transparent" points="406,-10 406,-30 426,-30 426,-10 406,-10"/>
<text text-anchor="start" x="429.7258" y="-15.4" font-family="sans-serif" font-size="14.00" fill="#000000"> &#160;Exports</text>
<g id="clust1" class="cluster">
<title>cluster_ApiModule</title>
<polygon fill="none" stroke="#000000" stroke-dasharray="1,5" points="17.5,-70 17.5,-195 478.5,-195 478.5,-70 17.5,-70"/>
</g>
<g id="clust3" class="cluster">
<title>cluster_ApiModule_imports</title>
<polygon fill="none" stroke="#000000" points="25.5,-78 25.5,-130 470.5,-130 470.5,-78 25.5,-78"/>
</g>
<!-- AuthModule -->
<g id="node1" class="node">
<title>AuthModule</title>
<polygon fill="#8dd3c7" stroke="#000000" points="462.0482,-122 459.0482,-126 438.0482,-126 435.0482,-122 374.9518,-122 374.9518,-86 462.0482,-86 462.0482,-122"/>
<text text-anchor="middle" x="418.5" y="-99.8" font-family="Times,serif" font-size="14.00" fill="#000000">AuthModule</text>
</g>
<!-- ApiModule -->
<g id="node5" class="node">
<title>ApiModule</title>
<polygon fill="#8dd3c7" stroke="#000000" points="290.5483,-187 287.5483,-191 266.5483,-191 263.5483,-187 210.4517,-187 210.4517,-151 290.5483,-151 290.5483,-187"/>
<text text-anchor="middle" x="250.5" y="-164.8" font-family="Times,serif" font-size="14.00" fill="#000000">ApiModule</text>
</g>
<!-- AuthModule&#45;&gt;ApiModule -->
<g id="edge1" class="edge">
<title>AuthModule&#45;&gt;ApiModule</title>
<path fill="none" stroke="#000000" d="M418.5,-122.1061C418.5,-141.3391 418.5,-169 418.5,-169 418.5,-169 300.7402,-169 300.7402,-169"/>
<polygon fill="#000000" stroke="#000000" points="300.7402,-165.5001 290.7402,-169 300.7402,-172.5001 300.7402,-165.5001"/>
</g>
<!-- SigninModule -->
<g id="node2" class="node">
<title>SigninModule</title>
<polygon fill="#8dd3c7" stroke="#000000" points="356.6137,-122 353.6137,-126 332.6137,-126 329.6137,-122 260.3863,-122 260.3863,-86 356.6137,-86 356.6137,-122"/>
<text text-anchor="middle" x="308.5" y="-99.8" font-family="Times,serif" font-size="14.00" fill="#000000">SigninModule</text>
</g>
<!-- SigninModule&#45;&gt;ApiModule -->
<g id="edge2" class="edge">
<title>SigninModule&#45;&gt;ApiModule</title>
<path fill="none" stroke="#000000" d="M275.6083,-122.1061C275.6083,-122.1061 275.6083,-140.991 275.6083,-140.991"/>
<polygon fill="#000000" stroke="#000000" points="272.1084,-140.9909 275.6083,-150.991 279.1084,-140.991 272.1084,-140.9909"/>
</g>
<!-- SignonModule -->
<g id="node3" class="node">
<title>SignonModule</title>
<polygon fill="#8dd3c7" stroke="#000000" points="242.2233,-122 239.2233,-126 218.2233,-126 215.2233,-122 142.7767,-122 142.7767,-86 242.2233,-86 242.2233,-122"/>
<text text-anchor="middle" x="192.5" y="-99.8" font-family="Times,serif" font-size="14.00" fill="#000000">SignonModule</text>
</g>
<!-- SignonModule&#45;&gt;ApiModule -->
<g id="edge3" class="edge">
<title>SignonModule&#45;&gt;ApiModule</title>
<path fill="none" stroke="#000000" d="M226.169,-122.1061C226.169,-122.1061 226.169,-140.991 226.169,-140.991"/>
<polygon fill="#000000" stroke="#000000" points="222.6691,-140.9909 226.169,-150.991 229.6691,-140.991 222.6691,-140.9909"/>
</g>
<!-- WorkModule -->
<g id="node4" class="node">
<title>WorkModule</title>
<polygon fill="#8dd3c7" stroke="#000000" points="125.426,-122 122.426,-126 101.426,-126 98.426,-122 33.574,-122 33.574,-86 125.426,-86 125.426,-122"/>
<text text-anchor="middle" x="79.5" y="-99.8" font-family="Times,serif" font-size="14.00" fill="#000000">WorkModule</text>
</g>
<!-- WorkModule&#45;&gt;ApiModule -->
<g id="edge4" class="edge">
<title>WorkModule&#45;&gt;ApiModule</title>
<path fill="none" stroke="#000000" d="M79.5,-122.1061C79.5,-141.3391 79.5,-169 79.5,-169 79.5,-169 200.4081,-169 200.4081,-169"/>
<polygon fill="#000000" stroke="#000000" points="200.4081,-172.5001 210.4081,-169 200.4081,-165.5001 200.4081,-172.5001"/>
</g>
</g>
</svg>
