<?xml version="1.0" encoding="UTF-8" standalone="no"?>
<!DOCTYPE svg PUBLIC "-//W3C//DTD SVG 1.1//EN"
 "http://www.w3.org/Graphics/SVG/1.1/DTD/svg11.dtd">
<!-- Generated by graphviz version 2.40.1 (20161225.0304)
 -->
<!-- Title: dependencies Pages: 1 -->
<svg width="504pt" height="284pt"
 viewBox="0.00 0.00 504.00 284.00" xmlns="http://www.w3.org/2000/svg" xmlns:xlink="http://www.w3.org/1999/xlink">
<g id="graph0" class="graph" transform="scale(1 1) rotate(0) translate(4 280)">
<title>dependencies</title>
<polygon fill="#ffffff" stroke="transparent" points="-4,4 -4,-280 500,-280 500,4 -4,4"/>
<text text-anchor="start" x="227.0091" y="-42.4" font-family="sans-serif" font-weight="bold" font-size="14.00" fill="#000000">Legend</text>
<polygon fill="#ffffb3" stroke="transparent" points="14,-10 14,-30 34,-30 34,-10 14,-10"/>
<text text-anchor="start" x="37.629" y="-15.4" font-family="sans-serif" font-size="14.00" fill="#000000"> &#160;Declarations</text>
<polygon fill="#8dd3c7" stroke="transparent" points="127,-10 127,-30 147,-30 147,-10 127,-10"/>
<text text-anchor="start" x="150.7251" y="-15.4" font-family="sans-serif" font-size="14.00" fill="#000000"> &#160;Module</text>
<polygon fill="#80b1d3" stroke="transparent" points="213,-10 213,-30 233,-30 233,-10 213,-10"/>
<text text-anchor="start" x="236.7812" y="-15.4" font-family="sans-serif" font-size="14.00" fill="#000000"> &#160;Bootstrap</text>
<polygon fill="#fdb462" stroke="transparent" points="310,-10 310,-30 330,-30 330,-10 310,-10"/>
<text text-anchor="start" x="333.6732" y="-15.4" font-family="sans-serif" font-size="14.00" fill="#000000"> &#160;Providers</text>
<polygon fill="#fb8072" stroke="transparent" points="406,-10 406,-30 426,-30 426,-10 406,-10"/>
<text text-anchor="start" x="429.7258" y="-15.4" font-family="sans-serif" font-size="14.00" fill="#000000"> &#160;Exports</text>
<g id="clust1" class="cluster">
<title>cluster_JwtRefreshAuthModule</title>
<polygon fill="none" stroke="#000000" stroke-dasharray="1,5" points="63.5,-70 63.5,-268 432.5,-268 432.5,-70 63.5,-70"/>
</g>
<g id="clust4" class="cluster">
<title>cluster_JwtRefreshAuthModule_exports</title>
<polygon fill="none" stroke="#000000" points="111.5,-208 111.5,-260 383.5,-260 383.5,-208 111.5,-208"/>
</g>
<g id="clust6" class="cluster">
<title>cluster_JwtRefreshAuthModule_providers</title>
<polygon fill="none" stroke="#000000" points="71.5,-78 71.5,-130 424.5,-130 424.5,-78 71.5,-78"/>
</g>
<!-- JwtRefreshAuthService  -->
<g id="node1" class="node">
<title>JwtRefreshAuthService </title>
<polygon fill="#fb8072" stroke="#000000" points="375.9489,-252 223.0511,-252 223.0511,-216 375.9489,-216 375.9489,-252"/>
<text text-anchor="middle" x="299.5" y="-229.8" font-family="Times,serif" font-size="14.00" fill="#000000">JwtRefreshAuthService </text>
</g>
<!-- JwtStrategy  -->
<g id="node2" class="node">
<title>JwtStrategy </title>
<polygon fill="#fb8072" stroke="#000000" points="205.0964,-252 119.9036,-252 119.9036,-216 205.0964,-216 205.0964,-252"/>
<text text-anchor="middle" x="162.5" y="-229.8" font-family="Times,serif" font-size="14.00" fill="#000000">JwtStrategy </text>
</g>
<!-- JwtRefreshAuthModule -->
<g id="node3" class="node">
<title>JwtRefreshAuthModule</title>
<polygon fill="#8dd3c7" stroke="#000000" points="277.5212,-187 274.5212,-191 253.5212,-191 250.5212,-187 127.4788,-187 127.4788,-151 277.5212,-151 277.5212,-187"/>
<text text-anchor="middle" x="202.5" y="-164.8" font-family="Times,serif" font-size="14.00" fill="#000000">JwtRefreshAuthModule</text>
</g>
<!-- JwtRefreshAuthModule&#45;&gt;JwtRefreshAuthService  -->
<g id="edge1" class="edge">
<title>JwtRefreshAuthModule&#45;&gt;JwtRefreshAuthService </title>
<path fill="none" stroke="#000000" stroke-dasharray="5,2" d="M250.5181,-187.1061C250.5181,-187.1061 250.5181,-205.991 250.5181,-205.991"/>
<polygon fill="#000000" stroke="#000000" points="247.0181,-205.9909 250.5181,-215.991 254.0181,-205.991 247.0181,-205.9909"/>
</g>
<!-- JwtRefreshAuthModule&#45;&gt;JwtStrategy  -->
<g id="edge2" class="edge">
<title>JwtRefreshAuthModule&#45;&gt;JwtStrategy </title>
<path fill="none" stroke="#000000" stroke-dasharray="5,2" d="M166.2687,-187.1061C166.2687,-187.1061 166.2687,-205.991 166.2687,-205.991"/>
<polygon fill="#000000" stroke="#000000" points="162.7688,-205.9909 166.2687,-215.991 169.7688,-205.991 162.7688,-205.9909"/>
</g>
<!-- JwtRefreshAuthService -->
<g id="node4" class="node">
<title>JwtRefreshAuthService</title>
<ellipse fill="#fdb462" stroke="#000000" cx="313.5" cy="-104" rx="102.9841" ry="18"/>
<text text-anchor="middle" x="313.5" y="-99.8" font-family="Times,serif" font-size="14.00" fill="#000000">JwtRefreshAuthService</text>
</g>
<!-- JwtRefreshAuthService&#45;&gt;JwtRefreshAuthModule -->
<g id="edge3" class="edge">
<title>JwtRefreshAuthService&#45;&gt;JwtRefreshAuthModule</title>
<path fill="none" stroke="#000000" d="M244.2592,-117.468C244.2592,-117.468 244.2592,-140.8642 244.2592,-140.8642"/>
<polygon fill="#000000" stroke="#000000" points="240.7593,-140.8641 244.2592,-150.8642 247.7593,-140.8642 240.7593,-140.8641"/>
</g>
<!-- JwtStrategy -->
<g id="node5" class="node">
<title>JwtStrategy</title>
<ellipse fill="#fdb462" stroke="#000000" cx="136.5" cy="-104" rx="56.7561" ry="18"/>
<text text-anchor="middle" x="136.5" y="-99.8" font-family="Times,serif" font-size="14.00" fill="#000000">JwtStrategy</text>
</g>
<!-- JwtStrategy&#45;&gt;JwtRefreshAuthModule -->
<g id="edge4" class="edge">
<title>JwtStrategy&#45;&gt;JwtRefreshAuthModule</title>
<path fill="none" stroke="#000000" d="M160.1839,-120.4022C160.1839,-120.4022 160.1839,-140.5366 160.1839,-140.5366"/>
<polygon fill="#000000" stroke="#000000" points="156.684,-140.5366 160.1839,-150.5366 163.684,-140.5367 156.684,-140.5366"/>
</g>
</g>
</svg>
